HIERARCHY
ROOT Hips
{
  OFFSET -35.2597 29.1586 114.425
  CHANNELS 6 Xposition Yposition Zposition Zrotation Xrotation Yrotation
  JOINT LeftUpLeg
  {
    OFFSET 8.64259 1.95398 -2.38835
    CHANNELS 3 Zrotation Xrotation Yrotation
    JOINT LeftLeg
    {
      OFFSET 43.7702 0 0
      CHANNELS 3 Zrotation Xrotation Yrotation
      JOINT LeftFoot
      {
        OFFSET 40.6238 0 0
        CHANNELS 3 Zrotation Xrotation Yrotation
        JOINT LeftToeBase
        {
          OFFSET 12.7242 0 0
          CHANNELS 3 Zrotation Xrotation Yrotation
          End Site
          {
            OFFSET 0 0 0
          }
        }
      }
    }
  }
  JOINT RightUpLeg
  {
    OFFSET -8.2249 1.95398 -2.59336
    CHANNELS 3 Zrotation Xrotation Yrotation
    JOINT RightLeg
    {
      OFFSET 43.5653 0 0
      CHANNELS 3 Zrotation Xrotation Yrotation
      JOINT RightFoot
      {
        OFFSET 40.6238 0 0
        CHANNELS 3 Zrotation Xrotation Yrotation
        JOINT RightToeBase
        {
          OFFSET 12.7242 0 0
          CHANNELS 3 Zrotation Xrotation Yrotation
          End Site
          {
            OFFSET 0 0 0
          }
        }
      }
    }
  }
  JOINT Spine
  {
    OFFSET 0.165834 0.87714 6.61349
    CHANNELS 3 Zrotation Xrotation Yrotation
    JOINT Spine1
    {
      OFFSET 7.38963 1.71661e-005 0
      CHANNELS 3 Zrotation Xrotation Yrotation
      JOINT Spine2
      {
        OFFSET 11.9445 1.14441e-005 0
        CHANNELS 3 Zrotation Xrotation Yrotation
        JOINT Spine3
        {
          OFFSET 14.7254 4.19617e-005 0
          CHANNELS 3 Zrotation Xrotation Yrotation
          JOINT Spine4
          {
            OFFSET 10.9679 0 0
            CHANNELS 3 Zrotation Xrotation Yrotation
            JOINT RightShoulder
            {
              OFFSET 2.46616 -1.6653 3.69651
              CHANNELS 3 Zrotation Xrotation Yrotation
              JOINT RightArm
              {
                OFFSET 13.0012 0 0
                CHANNELS 3 Zrotation Xrotation Yrotation
                JOINT RightForeArm
                {
                  OFFSET 28.7848 1.62311e-005 0
                  CHANNELS 3 Zrotation Xrotation Yrotation
                  JOINT RightHand
                  {
                    OFFSET 26.5688 1.62095e-005 0
                    CHANNELS 3 Zrotation Xrotation Yrotation
                    End Site
                    {
                      OFFSET 0 0 0
                    }
                  }
                }
              }
            }
            JOINT LeftShoulder
            {
              OFFSET 2.38034 -1.29275 -3.7523
              CHANNELS 3 Zrotation Xrotation Yrotation
              JOINT LeftArm
              {
                OFFSET 16.3182 6.07031e-005 0
                CHANNELS 3 Zrotation Xrotation Yrotation
                JOINT LeftForeArm
                {
                  OFFSET 27.0901 0 0
                  CHANNELS 3 Zrotation Xrotation Yrotation
                  JOINT LeftHand
                  {
                    OFFSET 24.5451 1.51738e-005 0
                    CHANNELS 3 Zrotation Xrotation Yrotation
                    End Site
                    {
                      OFFSET 0 0 0
                    }
                  }
                }
              }
            }
            JOINT Neck
            {
              OFFSET 5.0226 -0.0266342 0
              CHANNELS 3 Zrotation Xrotation Yrotation
              JOINT Head
              {
                OFFSET 6.69364 2.86102e-005 0
                CHANNELS 3 Zrotation Xrotation Yrotation
                End Site
                {
                  OFFSET 0 0 0
                }
              }
            }
          }
        }
      }
    }
  }
}
MOTION
Frames:	9
Frame Time:	0.0416667
39.8502 91.6189 -194.942 -165.104 -86.8455 -159.777 -165.961 5.61816 99.0881 -83.3989 4.89023 2.64198 58.3239 -1.3633 5.29277 27.2562 2.24465 -6.12527 177 32.8765 101.461 -50.3184 -18.8151 0.813224 68.5851 -6.40571 -6.92771 16.5935 2.4703 6.79534 -1.90669 7.96098 -91.4464 10.9022 -4.46482 -2.45661 -0.762982 -4.56858 -2.25749 -23.3214 -3.52046 -3.6852 -3.30871 -3.52047 -3.68521 93.0352 -33.886 -99.6165 28.8177 14.3071 5.64575 -7.87503 -64.722 -7.43292 -60.2029 32.8503 -59.6132 -88.6034 -56.634 82.0113 -23.2426 5.10881 11.5528 90.8678 -6.74275 -92.2081 36.7875 -8.89525 -28.7988 16.5001 13.5817 3.15357 -12.3415 12.0931 2.74226 
39.731 91.1253 -188.381 -177.361 -85.7944 -168.209 -168.653 15.8992 101.816 -91.8358 6.17104 4.13205 61.7857 1.36259 8.43834 23.2127 3.31102 -11.5794 175.73 27.9637 104.976 -52.6428 -17.9308 2.13344 72.9138 -10.2155 -7.48161 17.6083 1.55491 8.11156 -1.49445 8.25244 -91.8565 10.3022 -3.82613 -3.35646 -1.36704 -3.97006 -3.18484 -23.8921 -2.64154 -4.35018 -3.87945 -2.64154 -4.35019 92.1245 -36.3746 -100.656 33.1101 11.8029 28.6952 -33.3188 -27.8746 -53.5581 -38.1922 10.5205 -37.8754 -89.0453 -59.6004 81.9033 -23.3105 0.52119 19.5651 93.8181 -8.33424 -91.8437 30.9406 -8.99716 -33.5211 17.7693 12.566 3.2767 -11.2566 10.9973 3.0548 
39.6911 90.9645 -181.613 170.921 -85.2527 -179.854 -173.031 24.3537 100.668 -94.6074 7.23026 4.70747 64.7619 3.85523 9.15789 20.2173 1.88963 -10.9768 175.224 22.8731 104.86 -54.3077 -17.9924 2.44793 77.4144 -14.131 -8.523 18.0042 1.15844 8.75156 -1.2053 8.33146 -91.9181 10.1475 -3.27607 -3.53172 -1.52369 -3.42823 -3.38422 -24.036 -2.06434 -4.35187 -4.02338 -2.06433 -4.35188 91.1532 -36.4301 -102.414 33.2266 9.86618 16.9615 -30.4295 -25.6313 -52.4589 -40.9788 12.4888 -38.341 -88.5789 -60.0024 82.5969 -23.9302 -2.25602 32.82 91.1072 -10.6436 -92.1908 35.6613 -8.38467 -28.1728 16.7705 11.1892 4.0387 -9.16803 9.54209 2.85323 
39.7245 90.9145 -174.74 170.77 -85.5516 177.983 -175.774 31.6299 97.8083 -92.1082 7.04865 4.66175 67.7088 5.96358 9.61646 20.8489 1.85081 -10.4583 175.182 18.1104 102.703 -55.2613 -17.5846 1.83992 82.0763 -17.7592 -8.06571 19.4311 1.09963 7.59471 -0.756884 8.23301 -91.6954 10.3652 -2.28393 -3.16939 -1.30736 -2.42114 -3.06592 -23.8176 -1.22656 -3.7086 -3.80497 -1.22655 -3.70861 90.6179 -36.0869 -103.494 31.8002 9.2517 13.7549 -31.9916 -20.1372 -60.5108 -40.6691 11.9802 -37.3121 -87.6848 -59.8225 83.775 -23.5334 -5.77175 46.1295 89.7807 -14.2513 -92.4807 39.8605 -9.32703 -28.0073 15.5476 9.0386 2.69373 -8.35486 7.79876 4.18117 
39.8628 91.5005 -167.424 -171.58 -85.2896 -166.639 -176.602 35.691 95.1824 -84.0889 4.02236 4.28025 70.9299 7.85194 8.7037 20.9596 0.794091 -8.4415 175.256 11.5081 99.8085 -53.3802 -19.8658 0.916648 83.6513 -19.2747 -8.34665 20.501 0.430961 8.35983 0.0365265 8.10272 -91.3006 10.6555 -0.525892 -2.53769 -1.01776 -0.637028 -2.51211 -23.5331 0.260835 -2.57842 -3.52044 0.26083 -2.57842 90.764 -34.4437 -103.738 30.5893 9.63 13.2095 -35.4068 -17.7854 -66.764 -43.665 13.5162 -38.6021 -86.5464 -57.976 85.068 -21.8081 -11.2734 56.9814 91.0817 -18.1454 -92.1845 41.5734 -11.5776 -32.3695 13.1607 6.41402 -0.658238 -6.96508 6.12059 5.82155 
40.0164 92.6111 -159.978 -152.833 -83.6278 -150.167 -176.778 36.7241 93.5585 -72.1216 1.32776 3.4899 70.8575 7.60224 8.14294 22.1997 1.37149 -8.5624 174.841 4.14231 97.0054 -51.395 -22.7541 -0.331536 81.5528 -18.0409 -9.78092 25.1098 -1.55642 9.58939 0.885515 8.05782 -90.9398 10.7651 1.32994 -1.99123 -0.906829 1.24104 -2.04781 -23.4396 1.86683 -1.49958 -3.4269 1.86683 -1.49958 90.7307 -30.9848 -104.97 28.9781 11.136 19.689 -34.6663 -10.9865 -75.487 -39.9653 13.5659 -41.9538 -85.3735 -57.3351 86.611 -17.7656 -21.4298 65.4208 96.9035 -21.4914 -90.1564 41.8492 -14.8558 -39.7151 11.0531 4.49473 -2.05059 -6.26563 4.63964 5.23036 
40.2652 93.9572 -151.614 -146.357 -81.1143 -145.905 -177.46 33.808 92.4966 -57.2176 0.286117 2.75945 69.2994 6.75614 6.8573 22.8078 1.21408 -7.78906 173.321 -1.0157 88.8241 -47.6079 -25.579 -1.65246 77.6241 -14.3837 -8.99519 29.1574 -3.17519 10.6948 1.78825 8.15427 -90.5723 10.5928 3.29863 -1.43228 -1.07498 3.2324 -1.57618 -23.643 3.57647 -0.373566 -3.63036 3.57647 -0.373579 91.4697 -27.1957 -104.809 28.4806 11.5359 26.5362 -32.2014 -5.98304 -82.069 -40.432 14.6173 -44.1229 -84.8863 -54.4681 86.9522 -13.7399 -30.6474 72.1511 103.3 -24.4301 -87.2998 41.1922 -17.7355 -46.8844 10.3008 2.89342 -3.33917 -5.87584 3.4704 2.89468 
40.3766 95.1449 -142.922 -141.739 -79.4011 -143.544 -178.228 28.9806 91.8758 -39.6024 3.59706 2.01033 65.6821 5.33074 5.40077 24.4358 -0.595509 -2.9571 171.158 -11.0904 86.8894 -43.1163 -30.0195 -3.46047 72.6647 -9.61282 -6.58084 30.24 -3.93843 12.3144 2.51447 8.19589 -90.2171 10.5064 4.9089 -0.868425 -1.15575 4.86593 -1.08413 -23.765 4.94237 0.650754 -3.75232 4.94238 0.650752 91.9984 -23.5617 -105.113 26.7781 14.406 33.143 -32.7498 -3.61861 -88.0978 -36.4159 14.9543 -49.4275 -84.6704 -50.0055 86.7394 -10.9395 -37.1157 77.0612 107.939 -26.443 -84.8176 41.5105 -20.2727 -52.0078 8.92966 1.60707 -5.62695 -4.53259 2.71482 2.56267 
40.451 95.6971 -134.034 -135.339 -77.9892 -139.717 -178.897 22.4908 91.4816 -19.5419 6.81733 1.23562 59.3246 3.25935 2.35587 26.1821 0.0619614 -2.6587 169.257 -16.0583 81.3317 -41.6318 -34.5672 -7.02932 69.2313 -6.27088 -4.38682 25.2915 -1.7325 9.95817 3.06865 8.11884 -89.8355 10.655 6.18718 -0.235719 -1.00122 6.17079 -0.508859 -23.6494 5.9709 1.64152 -3.63676 5.97091 1.64151 92.3809 -19.9018 -105.759 25.1204 17.298 39.7148 -34.5784 -0.663824 -91.9559 -33.2691 15.2888 -54.4053 -83.9126 -43.7802 87.1419 -8.54691 -40.1676 84.2585 108.365 -28.2326 -84.1322 44.2825 -22.2472 -53.2235 5.96217 1.08254 -7.70104 -2.51589 2.49954 2.50148 
